<svg xmlns="http://www.w3.org/2000/svg" xml:space="preserve" style="fill-rule:evenodd;clip-rule:evenodd;stroke-linejoin:round;stroke-miterlimit:2" viewBox="0 0 24 24" fill="#77d6ffff"><path d="M3.313 8.244 2.007 7.49A1.091 1.091 0 0 1 3.098 5.6l1.306.755.04-.674a1.091 1.091 0 0 1 2.178.131l-.106 1.762L8.691 8.83 10.91 7.54V5.038l-1.578-.79a1.09 1.09 0 1 1 .975-1.95l.603.3V1.092a1.091 1.091 0 0 1 2.182 0v1.508l.603-.302a1.09 1.09 0 1 1 .975 1.951l-1.578.79V7.55l2.225 1.275 2.168-1.25-.106-1.763a1.091 1.091 0 0 1 2.178-.13l.04.673 1.306-.754a1.091 1.091 0 0 1 1.09 1.89l-1.305.753.563.37a1.092 1.092 0 0 1-1.202 1.823l-1.473-.973-2.175 1.255.006 2.566 2.169 1.251 1.473-.973a1.092 1.092 0 0 1 1.202 1.822l-.563.371 1.306.754a1.091 1.091 0 0 1-1.091 1.89l-1.306-.755-.04.674a1.091 1.091 0 0 1-2.178-.131l.106-1.762-2.175-1.256-2.218 1.289v2.503l1.578.79a1.09 1.09 0 1 1-.975 1.95l-.603-.3v1.507a1.091 1.091 0 0 1-2.182 0v-1.508l-.603.302a1.09 1.09 0 1 1-.975-1.951l1.578-.79V16.45l-2.225-1.275-2.168 1.25.106 1.763a1.091 1.091 0 0 1-2.178.13l-.04-.673-1.306.754a1.091 1.091 0 0 1-1.09-1.89l1.305-.753-.563-.37a1.092 1.092 0 0 1 1.202-1.823l1.473.973L7.6 13.281l-.006-2.566-2.169-1.251-1.473.973A1.092 1.092 0 0 1 2.75 8.615zm8.68 1.191-2.217 1.289.006 2.565 2.226 1.276 2.216-1.289-.006-2.565z"/></svg>